<svg xmlns="http://www.w3.org/2000/svg" viewBox="0 0 189.829 51.024"><path d="M37.89 47.94h6.722a1.551 1.551 0 001.552-1.547V4.63a1.551 1.551 0 00-1.552-1.547H37.89a1.55 1.55 0 00-1.55 1.547v41.763a1.55 1.55 0 001.55 1.547zm17.222 0h6.723a1.55 1.55 0 001.55-1.547v-26.28L83.377 47.28a1.538 1.538 0 00.395.386l.305.164c.087.03.12.042.153.05a1.61 1.61 0 00.42.06h6.465a1.55 1.55 0 001.55-1.546V4.63a1.55 1.55 0 00-1.55-1.547h-6.723a1.55 1.55 0 00-1.55 1.547v26.03L62.873 3.784a1.674 1.674 0 00-.13-.17 1.455 1.455 0 00-.102-.105 2.81 2.81 0 00-.112-.097 2.247 2.247 0 00-.117-.083L62 3.144l-.29-.053-.08-.006-6.517-.002A1.55 1.55 0 0053.56 4.63v41.763a1.55 1.55 0 001.552 1.547zm-53.564 0h26.859a1.55 1.55 0 001.547-1.55v-6.723a1.551 1.551 0 00-1.547-1.551H9.824V4.63a1.551 1.551 0 00-1.552-1.547H1.55A1.55 1.55 0 000 4.63v41.76a1.537 1.537 0 00.433 1.073 1.572 1.572 0 001.115.477zm99.004-.418a1.536 1.536 0 001.057.418h26.862a1.55 1.55 0 001.547-1.55v-6.723a1.551 1.551 0 00-1.547-1.551h-18.583v-7.692h18.583a1.55 1.55 0 001.547-1.55V22.15a1.55 1.55 0 00-1.547-1.55h-18.583v-7.693h18.583a1.55 1.55 0 001.547-1.55V4.634a1.55 1.55 0 00-1.547-1.55h-26.858a1.542 1.542 0 00-1.078.435 1.58 1.58 0 00-.473 1.112V46.39a1.537 1.537 0 00.433 1.073zM164.317 0a25.512 25.512 0 107.925 49.767l1.517-.534a1.029 1.029 0 00.666-1.29l-1.46-4.497a1.02 1.02 0 00-1.293-.655l-1.525.537a18.744 18.744 0 1112.91-17.816 19.974 19.974 0 01-1.183 6.573c-.57 1.633-1.895 2.961-2.952 2.961a2.617 2.617 0 01-2.614-2.613V14.392a1.023 1.023 0 00-1.022-1.022h-4.728a1.02 1.02 0 00-1.016.97l-.02.398-.35-.19a12.457 12.457 0 10.763 21.475l.249-.158.117.27a9.388 9.388 0 008.62 5.683c4.023 0 7.779-3.014 9.346-7.5a26.708 26.708 0 001.562-8.807A25.54 25.54 0 00164.317 0zm5.127 25.512a6.156 6.156 0 11-6.157-6.156 6.163 6.163 0 016.157 6.156z" fill="#00b900"/></svg>