<svg xmlns="http://www.w3.org/2000/svg" viewBox="0 0 30 30"><defs><style>.cls-1{fill:#232426}</style></defs><g id="icn"><path class="cls-1" d="M15 2.703c4.005 0 4.48.015 6.061.087a8.302 8.302 0 012.786.517 4.648 4.648 0 011.724 1.122 4.648 4.648 0 011.122 1.724 8.302 8.302 0 01.517 2.786c.072 1.581.087 2.056.087 6.061s-.015 4.48-.087 6.061a8.302 8.302 0 01-.516 2.786 4.968 4.968 0 01-2.847 2.846 8.302 8.302 0 01-2.786.517c-1.581.072-2.055.087-6.06.087s-4.48-.015-6.062-.087a8.302 8.302 0 01-2.785-.517 4.648 4.648 0 01-1.725-1.122 4.648 4.648 0 01-1.122-1.724 8.302 8.302 0 01-.517-2.786c-.072-1.581-.087-2.056-.087-6.061s.015-4.48.087-6.061a8.302 8.302 0 01.517-2.786A4.648 4.648 0 014.429 4.43a4.648 4.648 0 011.724-1.122A8.302 8.302 0 018.94 2.79c1.581-.072 2.056-.087 6.061-.087M15 0c-4.074 0-4.585.017-6.184.09a11.011 11.011 0 00-3.642.698 7.352 7.352 0 00-2.656 1.73 7.352 7.352 0 00-1.73 2.656A11.011 11.011 0 00.09 8.815C.017 10.415 0 10.927 0 15s.017 4.585.09 6.184a11.011 11.011 0 00.697 3.642 7.353 7.353 0 001.73 2.656 7.352 7.352 0 002.657 1.73 11.011 11.011 0 003.641.698c1.6.073 2.11.09 6.185.09s4.584-.017 6.184-.09a11.011 11.011 0 003.641-.698 7.67 7.67 0 004.387-4.386 11.011 11.011 0 00.697-3.642c.073-1.6.09-2.11.09-6.184s-.017-4.585-.09-6.185a11.011 11.011 0 00-.697-3.64 7.352 7.352 0 00-1.73-2.657 7.352 7.352 0 00-2.657-1.73 11.011 11.011 0 00-3.64-.698C19.584.017 19.073 0 15 0z"/><path class="cls-1" d="M15 7.297A7.703 7.703 0 1022.703 15 7.703 7.703 0 0015 7.297zM15 20a5 5 0 115-5 5 5 0 01-5 5z"/><circle class="cls-1" cx="23.007" cy="6.993" r="1.8"/></g></svg>