<svg xmlns="http://www.w3.org/2000/svg" viewBox="0 0 24.52 30.4"><defs><style>.cls-1{fill:#d3553c}</style></defs><g id="icn"><path class="cls-1" d="M12.26 30.4c-.337 0-.505 0-2.492-2.07a67.44 67.44 0 01-3.97-4.53C3.153 20.489 0 15.798 0 12.26a12.192 12.192 0 012.153-6.941.82.82 0 111.35.929A10.562 10.562 0 001.64 12.26c0 4.976 8.087 13.912 10.625 16.262C14.72 26.252 22.88 17.206 22.88 12.26A10.626 10.626 0 007.704 2.664a.814.814 0 01-.351.08A.82.82 0 017 1.184 12.264 12.264 0 0124.52 12.26c0 3.542-3.145 8.23-5.784 11.54a66.897 66.897 0 01-3.968 4.53c-1.99 2.07-2.185 2.07-2.508 2.07z"/><path class="cls-1" d="M3.18 5.273a.62.62 0 00-.862.16A11.993 11.993 0 00.2 12.26c0 3.478 3.13 8.128 5.755 11.416a67.093 67.093 0 003.957 4.516C11.84 30.2 12.007 30.2 12.26 30.2c.251 0 .433 0 2.364-2.008a66.739 66.739 0 003.956-4.516c2.619-3.286 5.74-7.933 5.74-11.416A12.065 12.065 0 007.086 1.364a.62.62 0 00.532 1.119A10.724 10.724 0 0112.26 1.44a10.833 10.833 0 0110.82 10.82c0 5.304-8.87 14.784-10.816 16.533C10.294 27.013 1.44 17.546 1.44 12.26a10.759 10.759 0 011.9-6.125.62.62 0 00-.16-.862z"/><path class="cls-1" d="M12.128 18.196a6.556 6.556 0 116.556-6.555 6.563 6.563 0 01-6.556 6.555zm0-11.471a4.916 4.916 0 104.916 4.916 4.921 4.921 0 00-4.916-4.916z"/><path class="cls-1" d="M18.483 11.64a6.356 6.356 0 10-6.355 6.356 6.362 6.362 0 006.355-6.355zm-11.471 0a5.116 5.116 0 115.116 5.117 5.122 5.122 0 01-5.116-5.116z"/></g></svg>