<svg xmlns="http://www.w3.org/2000/svg" viewBox="0 0 29.974 30"><defs><style>.cls-1{fill:#eb7aa3}</style></defs><g id="icn"><g id="call"><path class="cls-1" d="M26.983 30a6.185 6.185 0 01-.933-.084 31.422 31.422 0 01-17.057-8.854A31.963 31.963 0 01.095 3.977a3.172 3.172 0 01.197-2.154l.003-.004a1.433 1.433 0 01.925-.709L5.864.072a2.082 2.082 0 012.31 1.542 27.62 27.62 0 001.579 4.359 2.04 2.04 0 01-.674 2.652l-1.106.642a.984.984 0 00-.457.607c-.225.88 2.68 4.64 5.327 7.292 2.206 2.204 6.166 5.374 7.124 5.134a.99.99 0 00.612-.461l.643-1.108a2.042 2.042 0 012.651-.67c.908.443 2.385 1.026 3.571 1.495 1.615.638 1.777.711 1.927.86a1.884 1.884 0 01.565 1.73l-1.037 4.636a1.451 1.451 0 01-.712.933 2.33 2.33 0 01-1.204.285zM1.4 2.479a2.043 2.043 0 00-.037 1.273 30.689 30.689 0 008.54 16.4 30.118 30.118 0 0016.339 8.492 2.32 2.32 0 001.29-.037.264.264 0 00.109-.098l1.037-4.638a.623.623 0 00-.217-.544c-.042-.001-.812-.306-1.49-.573-1.207-.478-2.71-1.071-3.661-1.536a.775.775 0 00-.979.166l-.639 1.102a2.29 2.29 0 01-1.411 1.062c-2.254.563-8.1-5.225-8.348-5.473-.255-.254-6.237-6.275-5.665-8.515a2.275 2.275 0 011.059-1.406l1.098-.638a.763.763 0 00.171-.979 27.978 27.978 0 01-1.624-4.453c-.155-.509-.534-.813-.832-.755l-4.645 1.04a.307.307 0 00-.095.11zm22.723 11.837a.643.643 0 01-.644-.643 8.518 8.518 0 00-8.508-8.508.644.644 0 110-1.287 9.806 9.806 0 019.795 9.795.643.643 0 01-.643.643z"/><path class="cls-1" d="M28 14.316a.643.643 0 01-.644-.643A12.4 12.4 0 0014.971 1.287a.644.644 0 110-1.287 13.688 13.688 0 0113.672 13.673.643.643 0 01-.643.643z"/></g></g></svg>