<svg xmlns="http://www.w3.org/2000/svg" viewBox="0 0 56.487 40"><path d="M.82.018L.763.032a1.01 1.01 0 00-.117.036.878.878 0 00-.058.024.986.986 0 00-.115.062L.434.177A1.005 1.005 0 00.3.288l-.027.03a1.005 1.005 0 00-.086.104L.154.474a1.011 1.011 0 00-.056.102.751.751 0 00-.027.061C.067.647.06.656.058.666a.998.998 0 00-.026.098C.028.779.022.794.02.809A.99.99 0 00.001.99L0 1.002v37.996A1.002 1.002 0 001.002 40h54.483a1.002 1.002 0 001.002-1.002V.99a.997.997 0 00-.02-.184c-.002-.012-.006-.023-.009-.035a.995.995 0 00-.029-.107c-.004-.01-.01-.02-.013-.03L56.39.58a.998.998 0 00-.059-.107.87.87 0 00-.03-.048 1.003 1.003 0 00-.09-.109c-.009-.008-.016-.018-.024-.026a1.014 1.014 0 00-.136-.112c-.011-.008-.023-.014-.035-.02a1.012 1.012 0 00-.119-.065.707.707 0 00-.055-.023.972.972 0 00-.12-.037l-.055-.014A.994.994 0 0055.486 0H1.002A.99.99 0 00.82.018zm51.86 1.986L33.33 17.858v-.683a1.002 1.002 0 00-1.002-1.002H24.17a1.002 1.002 0 00-1.002 1.002v.62L3.815 2.005zM31.327 18.177v6.237h-6.154v-6.237zM2.004 3.113l21.164 17.269v5.034a1.002 1.002 0 001.002 1.002h8.158a1.002 1.002 0 001.002-1.002v-4.967L54.483 3.12v34.877H2.004z" fill="#fff"/></svg>