<svg xmlns="http://www.w3.org/2000/svg" viewBox="0 0 267.332 116.493"><path d="M24.512.408h5.742l25.589 57.396h-8.362l-7.606-16.913H15.527l-7.13 16.913H0zM36.517 33.62L27.31 12.95l-8.54 20.67zm49.75.273l-6.21-3.773q-5.841-3.567-8.312-7.019a13.295 13.295 0 01-2.472-7.945 14.037 14.037 0 014.678-10.948Q78.628 0 86.104 0a22.998 22.998 0 0113.113 4.014v9.273q-6.17-5.933-13.276-5.934a10.99 10.99 0 00-6.578 1.852 5.619 5.619 0 00-2.573 4.74 7.304 7.304 0 001.896 4.802 23.841 23.841 0 006.097 4.7l6.24 3.692q10.44 6.237 10.44 15.877a14.553 14.553 0 01-4.595 11.152q-4.596 4.29-11.949 4.29a25.098 25.098 0 01-15.4-5.199V42.883q6.618 8.385 15.32 8.385a9.622 9.622 0 006.392-2.137 6.697 6.697 0 002.553-5.353q0-5.21-7.517-9.885zM115.629.654h47.673v7.271h-19.894v49.88h-8.211V7.924h-19.568zm65.433.081h32.355v7.272h-24.184v17.402h23.366v7.312h-23.366v17.73h24.96v7.27h-33.13zm51.871 0h8.17V50.37H266.8v7.435h-33.866zM.24 116.155v-29.56H9.6a9.646 9.646 0 016.74 2.282 7.869 7.869 0 012.514 6.128 8.193 8.193 0 01-1.289 4.563 7.368 7.368 0 01-3.528 2.884 17.94 17.94 0 01-6.424.898H4.486v12.805zm8.62-25.8H4.488v9.234h4.627a5.865 5.865 0 003.972-1.215 4.361 4.361 0 001.395-3.476q0-4.543-5.62-4.543zm15.962 25.8V86.636h7.395a10.678 10.678 0 017.11 2.219 7.444 7.444 0 012.63 6.001 7.384 7.384 0 01-4.986 7.268 13.06 13.06 0 012.769 2.536 51.302 51.302 0 013.803 5.6q1.543 2.515 2.472 3.782l1.564 2.113H42.55l-1.288-1.945a4.82 4.82 0 00-.253-.36l-.823-1.163-1.308-2.157-1.414-2.304a22.915 22.915 0 00-2.397-2.894 9.094 9.094 0 00-1.968-1.55 6.64 6.64 0 00-2.951-.475h-1.1v12.847zm5.494-25.927h-1.268v9.32h1.606a11.911 11.911 0 004.405-.55 4.137 4.137 0 001.86-1.659 4.812 4.812 0 00.665-2.525 4.513 4.513 0 00-.74-2.526 3.96 3.96 0 00-2.08-1.595 15.036 15.036 0 00-4.448-.465zm22.722-3.592h4.226v29.519h-4.226zm31.636 0h4.208l-12.48 29.645h-.957L62.724 86.636h4.254l8.878 20.729zm19.03-.168h2.97l13.236 29.687h-4.326l-3.934-8.748H99.057l-3.689 8.748h-4.343zm6.21 17.178l-4.764-10.691-4.416 10.69zm12.877-17.052h24.659v3.761h-10.29v25.8h-4.247v-25.8H122.79zm30.816.042h16.736v3.762h-12.51v9.001h12.087v3.782h-12.087v9.171h12.91v3.76h-17.136zm39.753 14.982h9.91v12.509a27 27 0 01-10.817 2.366q-7.332 0-11.717-4.278a14.165 14.165 0 01-4.384-10.555 14.684 14.684 0 014.543-11.009 15.726 15.726 0 0111.389-4.395 20.165 20.165 0 014.733.539 38.807 38.807 0 015.662 1.975v4.311a20.768 20.768 0 00-10.48-3.064 11.124 11.124 0 00-8.156 3.296 11.686 11.686 0 000 16.312 11.807 11.807 0 008.536 3.191 19.899 19.899 0 006.065-1.162l.401-.126v-6.15h-5.684zm35.998-14.982h5.13l-10.903 13.904v15.615h-4.331V100.54L208.35 86.637h5.1l7.9 10.177zm34.022 0h3.952v29.519h-4.247V93.187l-9.076 11.41h-.781l-9.181-11.41v22.968h-4.226V86.636h4l9.809 12.124z" fill="#232426"/></svg>