<svg xmlns="http://www.w3.org/2000/svg" viewBox="0 0 55 55"><defs><style>.cls-3{fill:#333}</style></defs><g id="icn"><path fill="none" d="M0 0h55v55H0z"/><path d="M12.246 24.894a.7.7 0 00.7.7h14.111l-4.55 4.606a.7.7 0 10.997.985l5.7-5.768a.7.7 0 00-.006-.991l-5.663-5.596a.7.7 0 00-.985.996l4.42 4.368H12.947a.7.7 0 00-.7.7zm-1.946 0a.7.7 0 00-.701-.7H8.033a.7.7 0 000 1.4h1.566a.7.7 0 00.7-.7z" fill="#d3553c"/><path class="cls-3" d="M34.818 7.533c-5.882.05-11.791.148-11.85.149a.7.7 0 00-.69.7v3.693a.7.7 0 001.402 0V9.072c6.936-.113 16.887-.218 21.104-.139-1.369.665-3.73 1.747-5.928 2.724a.7.7 0 00-.416.64v29.657H23.595v-3.072a.7.7 0 10-1.401 0v3.773a.7.7 0 00.7.7H38.44V46.8a.7.7 0 001.029.62l7.825-4.145c.01-.005.019-.013.028-.018a.684.684 0 00.064-.043.668.668 0 00.141-.142.67.67 0 00.038-.056.679.679 0 00.031-.058.686.686 0 00.027-.064.741.741 0 00.033-.13.68.68 0 00.008-.073c0-.012.003-.023.003-.035V8.383a.728.728 0 00-.214-.51c-.3-.295-.452-.443-12.635-.34zm11.448 34.7l-6.424 3.403V12.752c3.879-1.728 5.62-2.56 6.424-3.006z"/><rect class="cls-3" x="41.119" y="26.907" width="1.539" height="4.128" rx=".77"/></g></svg>