<svg xmlns="http://www.w3.org/2000/svg" viewBox="0 0 55 55"><defs><style>.cls-3{fill:#d3553c}</style></defs><g id="icn"><path fill="none" d="M0 0h55v55H0z"/><path d="M40.227 30.29H14.773a.785.785 0 01-.785-.784v-4.012a.785.785 0 01.785-.785h25.454a.785.785 0 01.785.785v4.012a.785.785 0 01-.785.785zm-24.67-1.57h23.885v-2.44H15.558zM4.646 30.29h-2.34a1.924 1.924 0 01-1.922-1.92v-1.74a1.924 1.924 0 011.922-1.922h2.34a.785.785 0 01.785.785v4.012a.785.785 0 01-.785.785zm-2.34-4.01a.352.352 0 00-.352.351v1.738a.352.352 0 00.352.352H3.86v-2.442zm50.388 4.01h-2.34a.785.785 0 01-.785-.784v-4.012a.785.785 0 01.785-.785h2.34a1.924 1.924 0 011.923 1.922v1.738a1.924 1.924 0 01-1.923 1.922zm-1.555-1.57h1.555a.353.353 0 00.353-.351V26.63a.353.353 0 00-.353-.352H51.14z" fill="#232426"/><path class="cls-3" d="M13.354 42.5h-2.226a2.206 2.206 0 01-2.204-2.204V14.704a2.206 2.206 0 012.204-2.203h2.226a2.206 2.206 0 012.204 2.204v25.593a2.206 2.206 0 01-2.204 2.203zm-2.226-28.43a.634.634 0 00-.634.634v25.593a.634.634 0 00.634.633h2.226a.634.634 0 00.634-.633V14.704a.634.634 0 00-.634-.634z"/><path class="cls-3" d="M8.29 37.486H6.064a2.206 2.206 0 01-2.203-2.204V19.718a2.206 2.206 0 012.203-2.203H8.29a2.206 2.206 0 012.204 2.203v15.564a2.206 2.206 0 01-2.204 2.204zM6.064 19.084a.634.634 0 00-.634.634v15.564a.634.634 0 00.634.634H8.29a.634.634 0 00.634-.634V19.718a.634.634 0 00-.634-.634zM43.872 42.5h-2.227a2.206 2.206 0 01-2.203-2.204V14.704a2.206 2.206 0 012.203-2.203h2.227a2.206 2.206 0 012.203 2.204v25.593a2.206 2.206 0 01-2.203 2.203zm-2.227-28.43a.634.634 0 00-.633.634v25.593a.634.634 0 00.633.633h2.227a.634.634 0 00.633-.633V14.704a.634.634 0 00-.633-.634z"/><path class="cls-3" d="M48.936 37.486h-2.227a2.206 2.206 0 01-2.204-2.204V19.718a2.206 2.206 0 012.204-2.203h2.227a2.206 2.206 0 012.203 2.203v15.564a2.206 2.206 0 01-2.203 2.204zm-2.227-18.402a.634.634 0 00-.634.634v15.564a.634.634 0 00.634.634h2.227a.634.634 0 00.634-.634V19.718a.634.634 0 00-.634-.634z"/></g></svg>