<svg xmlns="http://www.w3.org/2000/svg" viewBox="0 0 55 55"><defs><style>.cls-2{fill:#232426}</style></defs><g id="icn"><path fill="none" d="M0 0h55v55H0z"/><path class="cls-2" d="M39.819 47.5H15.18a3.15 3.15 0 01-3.146-3.147V10.647A3.15 3.15 0 0115.18 7.5h24.64a3.15 3.15 0 013.147 3.147v33.706A3.15 3.15 0 0139.82 47.5zM15.18 8.797a1.851 1.851 0 00-1.85 1.85v33.706a1.851 1.851 0 001.85 1.85h24.64a1.851 1.851 0 001.85-1.85V10.647a1.851 1.851 0 00-1.85-1.85z"/><path class="cls-2" d="M38.122 12.671H16.878a.649.649 0 01-.649-.649V8.15a.649.649 0 01.649-.649h21.244a.649.649 0 01.649.649v3.874a.649.649 0 01-.649.648zm-20.596-1.297h19.947V8.797H17.527z"/><path d="M20.214 23.233a.649.649 0 01-.458-.19l-1.63-1.63a.648.648 0 11.917-.917l1.172 1.172 2.802-2.802a.649.649 0 11.917.917l-3.26 3.26a.649.649 0 01-.46.19zm0 8.152a.649.649 0 01-.458-.19l-1.63-1.63a.649.649 0 01.917-.917l1.172 1.172 2.802-2.802a.648.648 0 01.917.917l-3.26 3.26a.649.649 0 01-.46.19zm0 8.152a.649.649 0 01-.458-.19l-1.63-1.63a.649.649 0 11.917-.917l1.172 1.172 2.802-2.802a.648.648 0 11.917.917l-3.26 3.26a.649.649 0 01-.46.19z" fill="#d3553c"/><path class="cls-2" d="M36.416 23.233h-9.272a.649.649 0 010-1.297h9.272a.649.649 0 110 1.297zm0 8.152h-9.272a.649.649 0 010-1.297h9.272a.649.649 0 010 1.297zm0 8.152h-9.272a.649.649 0 110-1.297h9.272a.649.649 0 010 1.297z"/></g></svg>