<svg xmlns="http://www.w3.org/2000/svg" viewBox="0 0 85 85"><defs><style>.cls-1{fill:#232426}.cls-2{fill:#d3553c}</style></defs><g id="icn"><path class="cls-1" d="M45.86 53.613a1.156 1.156 0 01-.992-1.746c2.623-4.411 6.13-7.072 10.42-7.91 8.842-1.725 17.783 4.95 18.16 5.236a1.156 1.156 0 01-1.396 1.842c-.084-.064-8.508-6.34-16.33-4.807-3.614.708-6.597 3.002-8.868 6.82a1.155 1.155 0 01-.994.565zm-16.541 2.23a1.155 1.155 0 01-1.117-.862 55.241 55.241 0 01-1.346-11.024 1.156 1.156 0 012.31-.086 53.867 53.867 0 001.27 10.521 1.157 1.157 0 01-1.117 1.45z"/><path class="cls-1" d="M50.211 56.241a1.15 1.15 0 01-.76-.285c-.368-.32-8.958-7.587-19.499-.318a1.156 1.156 0 01-1.312-1.903 18.372 18.372 0 0122.334.482 1.156 1.156 0 01-.763 2.024zM72.75 74.802a1.154 1.154 0 01-.941-.484l-4.367-6.114a1.156 1.156 0 111.88-1.343l4.368 6.114a1.156 1.156 0 01-.94 1.827z"/><path class="cls-1" d="M48.98 77.5c-8 0-18.413-1.886-31.596-7.62a6.105 6.105 0 01-3.671-5.531c-.005-.577-.019-1.177-.032-1.806a67.755 67.755 0 013.166-23.534 1.156 1.156 0 012.213.666 65.71 65.71 0 00-3.069 22.818c.014.638.027 1.248.033 1.834a3.79 3.79 0 002.282 3.433c36.103 15.706 50.68 1.327 50.823 1.18a1.155 1.155 0 011.666 1.602c-.405.423-6.928 6.958-21.815 6.958z"/><path class="cls-2" d="M29.932 45.173A18.837 18.837 0 1148.77 26.337a18.858 18.858 0 01-18.837 18.836zm0-35.362a16.525 16.525 0 1016.526 16.526A16.544 16.544 0 0029.932 9.81z"/><path class="cls-2" d="M29.932 39.94a13.604 13.604 0 1113.604-13.603A13.619 13.619 0 0129.932 39.94zm0-24.896a11.292 11.292 0 1011.292 11.293 11.305 11.305 0 00-11.292-11.293z"/><path class="cls-2" d="M29.932 31.046a4.71 4.71 0 114.71-4.71 4.715 4.715 0 01-4.71 4.71zm0-7.107a2.398 2.398 0 102.398 2.398 2.4 2.4 0 00-2.398-2.398z"/><path fill="none" d="M0 0h85v85H0z"/></g></svg>