<svg xmlns="http://www.w3.org/2000/svg" viewBox="0 0 85 85"><defs><style>.cls-2{fill:#232426}</style></defs><g id="icn"><path d="M42.5 39.391a1.127 1.127 0 01-.8-.33L28.22 25.58A10.591 10.591 0 0142.501 9.963a10.605 10.605 0 0114.28.639 10.604 10.604 0 010 14.977L43.3 39.06a1.127 1.127 0 01-.8.331zm-6.792-29.63A8.33 8.33 0 0029.82 23.98L42.5 36.661 55.181 23.98a8.33 8.33 0 10-11.779-11.779l-.101.102a1.165 1.165 0 01-1.601 0l-.102-.102a8.274 8.274 0 00-5.89-2.44z" fill="#d3553c"/><path class="cls-2" d="M21.047 77.5h-9.673a1.131 1.131 0 01-1.13-1.13V49.304a1.131 1.131 0 011.13-1.13h9.673a1.131 1.131 0 011.13 1.13V76.37a1.131 1.131 0 01-1.13 1.131zm-8.542-2.262h7.41V50.436h-7.41z"/><path class="cls-2" d="M36.82 62a1.131 1.131 0 01-.336-2.211l6.931-2.151a1.131 1.131 0 01.493-.04l12.964 1.823a1.439 1.439 0 001.591-1.098l.112-.488a1.432 1.432 0 00-1.065-1.706l-14.505-3.425-21.753 4.02a1.13 1.13 0 01-.41-2.224l21.986-4.063a1.126 1.126 0 01.465.012l14.737 3.48a3.701 3.701 0 012.75 4.409l-.11.488a3.708 3.708 0 01-4.113 2.836l-12.713-1.789-6.69 2.076a1.13 1.13 0 01-.335.051z"/><path class="cls-2" d="M35.923 72.196a128.373 128.373 0 01-15.008-.883 1.13 1.13 0 01.264-2.247 124.995 124.995 0 0047.631-3.543l2.631-.716a1.429 1.429 0 00.302-2.636 1.432 1.432 0 00-.677-.171l-14.378-.328a1.131 1.131 0 01-1.105-1.157 1.155 1.155 0 011.157-1.104l14.352.328h.001a3.69 3.69 0 01.942 7.25l-2.632.716a127.277 127.277 0 01-33.48 4.49z"/><path fill="none" d="M0 0h85v85H0z"/></g></svg>