<svg xmlns="http://www.w3.org/2000/svg" viewBox="0 0 85 85"><defs><style>.cls-1{fill:#242221}.cls-2{fill:#d3553c}</style></defs><g id="icn"><path class="cls-1" d="M64.202 77.5a1.152 1.152 0 01-.96-1.787c.123-.186 12.134-18.772.094-34.463C51.38 25.67 60.083 8.298 60.172 8.125a1.152 1.152 0 012.049 1.052c-.083.161-8.11 16.27 2.943 30.671 13.05 17.008.131 36.937-.001 37.136a1.151 1.151 0 01-.961.516zm-43.404 0a1.151 1.151 0 01-.961-.515c-.132-.2-13.052-20.129 0-37.137 11.051-14.401 3.025-30.51 2.942-30.67a1.152 1.152 0 012.05-1.053c.089.173 8.791 17.545-3.165 33.125-12.04 15.69-.029 34.277.094 34.463a1.152 1.152 0 01-.96 1.787z"/><path class="cls-2" d="M19.041 25.478H1.422a1.152 1.152 0 110-2.303h17.62a1.152 1.152 0 110 2.303z"/><path class="cls-2" d="M14.33 30.19a1.152 1.152 0 01-.815-1.966l3.898-3.898-3.898-3.898a1.152 1.152 0 011.628-1.628l4.713 4.712a1.152 1.152 0 010 1.629l-4.713 4.712a1.149 1.149 0 01-.814.337zm69.248-4.712h-17.62a1.152 1.152 0 110-2.303h17.62a1.152 1.152 0 110 2.303z"/><path class="cls-2" d="M70.67 30.19a1.149 1.149 0 01-.813-.337l-4.713-4.712a1.151 1.151 0 010-1.63l4.713-4.711a1.152 1.152 0 011.628 1.629l-3.898 3.897 3.898 3.898a1.152 1.152 0 01-.814 1.966z"/><path class="cls-1" d="M42.353 43.822a61.442 61.442 0 01-21.109-3.462 1.152 1.152 0 01.853-2.14 65.23 65.23 0 0040.87-.023 1.152 1.152 0 11.725 2.186 67.582 67.582 0 01-21.339 3.44zm.139 17.771a1.152 1.152 0 01-.885-.415 40.707 40.707 0 00-21.49-13.424l-2.23-.545a1.152 1.152 0 01.547-2.237l2.23.545a43.048 43.048 0 0121.818 13.147 41.408 41.408 0 0120.95-12.902l3.11-.788a1.152 1.152 0 11.565 2.233l-3.11.788a39.065 39.065 0 00-20.61 13.172 1.153 1.153 0 01-.888.426z"/><path class="cls-1" d="M42.492 77.5a1.152 1.152 0 01-1.151-1.152V60.442a1.152 1.152 0 012.303 0v15.906a1.152 1.152 0 01-1.151 1.152z"/><path fill="none" d="M0 0h85v85H0z"/></g></svg>