<svg xmlns="http://www.w3.org/2000/svg" viewBox="0 0 85 85"><defs><style>.cls-1{fill:#232426}.cls-2{fill:#d3553c}</style></defs><g id="icn"><path class="cls-1" d="M9.974 36.354a9.23 9.23 0 01-9.219-9.218V19.01a1.094 1.094 0 112.188 0v8.125a7.031 7.031 0 0014.062 0V19.01a1.094 1.094 0 112.188 0v8.125a9.23 9.23 0 01-9.22 9.218z"/><path class="cls-1" d="M9.974 67.083A1.094 1.094 0 018.88 65.99V19.01a1.094 1.094 0 112.188 0v46.98a1.094 1.094 0 01-1.094 1.093zm73.177.417a1.094 1.094 0 01-1.094-1.094V43.49a1.094 1.094 0 112.188 0v22.916A1.094 1.094 0 0183.15 67.5z"/><path class="cls-1" d="M83.151 44.583H79.61a3.598 3.598 0 01-3.594-3.593v-7.454a22.482 22.482 0 016.349-15.702 1.094 1.094 0 011.88.76V43.49a1.094 1.094 0 01-1.094 1.093zm-1.094-22.986a20.293 20.293 0 00-3.854 11.94v7.453a1.408 1.408 0 001.407 1.406h2.448zM45.849 67.5a25 25 0 1125-25 25.028 25.028 0 01-25 25zm0-47.813A22.813 22.813 0 1068.66 42.5a22.838 22.838 0 00-22.813-22.813z"/><path class="cls-2" d="M54.23 59.084c-2.26 0-4.222-1.914-6.666-4.299a38.842 38.842 0 00-5.873-4.981 38.845 38.845 0 00-6.937-3.342c-3.379-1.348-6.048-2.413-6.795-4.764-.486-1.53-.038-3.28 1.41-5.507 5.146-7.92 15.14-9.601 23.765-3.997s11.15 15.42 6.003 23.34c-1.447 2.227-2.865 3.347-4.46 3.525a4.014 4.014 0 01-.447.025zM42.668 31.11a13.428 13.428 0 00-11.466 6.272c-1.033 1.59-1.423 2.82-1.158 3.653.434 1.365 2.79 2.305 5.52 3.394a40.581 40.581 0 017.32 3.54 40.587 40.587 0 016.207 5.25c2.103 2.05 3.917 3.823 5.343 3.665.87-.097 1.835-.952 2.868-2.543 4.456-6.857 2.202-15.4-5.36-20.314a17.08 17.08 0 00-9.274-2.916zM58.22 54.939z"/><path class="cls-2" d="M38.807 41.41a1.094 1.094 0 01-.916-1.69l3.358-5.168a1.094 1.094 0 111.834 1.192l-3.358 5.168a1.093 1.093 0 01-.918.498zm7.053 3.07a1.094 1.094 0 01-.916-1.69l3.358-5.168a1.094 1.094 0 111.834 1.192l-3.358 5.168a1.093 1.093 0 01-.918.498zm4.954 4.733a1.094 1.094 0 01-.916-1.69l3.358-5.168a1.094 1.094 0 111.834 1.192l-3.358 5.168a1.093 1.093 0 01-.918.498z"/><path fill="none" d="M0 0h85v85H0z"/></g></svg>