<svg xmlns="http://www.w3.org/2000/svg" viewBox="0 0 55 55"><defs><style>.cls-2{fill:#d3553c}.cls-3{fill:#333}</style></defs><g id="icn"><path fill="none" d="M0 0h55v55H0z"/><path class="cls-2" d="M15.441 47.5a.707.707 0 01-.499-1.206l4.823-4.823a.706.706 0 011 .999l-4.824 4.823a.704.704 0 01-.5.207zm24.118 0a.704.704 0 01-.5-.207l-4.823-4.823a.706.706 0 01.999-1l4.823 4.824a.707.707 0 01-.5 1.206z"/><path class="cls-2" d="M37.95 45.892h-20.9a.707.707 0 010-1.413h20.9a.707.707 0 110 1.413z"/><path class="cls-3" d="M37.147 42.677H17.853a7.146 7.146 0 01-7.137-7.138v-18.49c0-4.959 2.033-9.549 16.784-9.549s16.785 4.59 16.785 9.55v18.49a7.146 7.146 0 01-7.138 7.137zM27.5 8.913c-15.371 0-15.371 5.093-15.371 8.136v18.49a5.731 5.731 0 005.724 5.725h19.294a5.731 5.731 0 005.724-5.725V17.05c0-3.043 0-8.136-15.371-8.136z"/><path class="cls-3" d="M17.853 36.245a3.118 3.118 0 113.118-3.118 3.122 3.122 0 01-3.118 3.118zm0-4.823a1.705 1.705 0 101.705 1.705 1.707 1.707 0 00-1.705-1.705zm19.294 4.823a3.118 3.118 0 113.118-3.118 3.122 3.122 0 01-3.118 3.118zm0-4.823a1.705 1.705 0 101.705 1.705 1.707 1.707 0 00-1.705-1.705zm3.215-3.216H14.637a.707.707 0 01-.706-.706V16.245a.707.707 0 01.707-.706h25.724a.707.707 0 01.707.707V27.5a.707.707 0 01-.707.706zm-25.018-1.413h24.312v-9.84H15.344zm18.587-13.057H21.07a.707.707 0 010-1.413h12.86a.707.707 0 010 1.413z"/></g></svg>