<svg xmlns="http://www.w3.org/2000/svg" viewBox="0 0 55 55"><defs><style>.cls-3{fill:#232426}</style></defs><g id="icn"><path fill="none" d="M0 0h55v55H0z"/><path d="M27.014 32.703a.7.7 0 01-.633-.402l-1.684-3.568-.593 1.503a.7.7 0 01-.652.443h-7.726a.7.7 0 010-1.4h7.25l1.012-2.565a.7.7 0 01.629-.442h.022a.7.7 0 01.633.4l1.562 3.308 1.929-7.164a.7.7 0 01.676-.518h.011a.7.7 0 01.67.54l1.214 5.204.073-.19a.7.7 0 01.654-.449h7.213a.7.7 0 010 1.4h-6.732l-.718 1.868a.7.7 0 01-1.336-.093l-1.098-4.707-1.7 6.313a.7.7 0 01-.614.516q-.03.003-.062.003z" fill="#d3553c"/><path class="cls-3" d="M36.214 47.5H18.786a3.765 3.765 0 01-3.76-3.76V11.26a3.765 3.765 0 013.76-3.76h17.428a3.765 3.765 0 013.76 3.76v32.48a3.765 3.765 0 01-3.76 3.76zM18.786 8.9a2.363 2.363 0 00-2.36 2.36v32.48a2.363 2.363 0 002.36 2.36h17.428a2.363 2.363 0 002.36-2.36V11.26a2.363 2.363 0 00-2.36-2.36z"/><path class="cls-3" d="M39.274 41.18H15.726a.7.7 0 01-.7-.7V13.722a.7.7 0 01.7-.7h23.548a.7.7 0 01.7.7v26.757a.7.7 0 01-.7.701zm-22.848-1.4h22.148V14.422H16.426zm13.241-28.098h-4.334a.7.7 0 110-1.4h4.334a.7.7 0 110 1.4zM27.855 44.43h-.71a.7.7 0 010-1.4h.71a.7.7 0 010 1.4z"/></g></svg>